<mxfile host="Electron" agent="Mozilla/5.0 (X11; Linux x86_64) AppleWebKit/537.36 (KHTML, like Gecko) draw.io/27.0.5 Chrome/134.0.6998.205 Electron/35.3.0 Safari/537.36" version="27.0.5">
  <diagram name="Page-1" id="ib0KKrDDxVYF5MeXXiUM">
    <mxGraphModel dx="1425" dy="940" grid="1" gridSize="10" guides="1" tooltips="1" connect="1" arrows="1" fold="1" page="1" pageScale="1" pageWidth="850" pageHeight="1100" background="#ffffff" math="0" shadow="1">
      <root>
        <mxCell id="0" />
        <mxCell id="1" parent="0" />
        <mxCell id="14" value="Specimen and collection" style="edgeStyle=orthogonalEdgeStyle;endArrow=block;html=1;" parent="1" edge="1">
          <mxGeometry relative="1" as="geometry">
            <mxPoint x="750" y="350" as="targetPoint" />
          </mxGeometry>
        </mxCell>
        <mxCell id="15" value="report delivery offline" style="edgeStyle=orthogonalEdgeStyle;endArrow=block;html=1;" parent="1" edge="1">
          <mxGeometry relative="1" as="geometry">
            <mxPoint x="700" y="380" as="sourcePoint" />
          </mxGeometry>
        </mxCell>
        <mxCell id="sfKcnbmMzuwdX9yF3wZo-21" value="&lt;div&gt;&lt;font style=&quot;font-size: 11px;&quot;&gt;Bionic Boarder&lt;/font&gt;&lt;/div&gt;&lt;div&gt;&lt;font style=&quot;font-size: 11px;&quot;&gt;App&lt;/font&gt;&lt;/div&gt;" style="shape=umlActor;verticalLabelPosition=bottom;verticalAlign=top;html=1;outlineConnect=0;strokeColor=#666666;align=center;fontFamily=Helvetica;fontSize=12;fontColor=#333333;labelBackgroundColor=none;fillColor=#f5f5f5;horizontal=1;textShadow=0;" parent="1" vertex="1">
          <mxGeometry x="270" y="520" width="30" height="60" as="geometry" />
        </mxCell>
        <mxCell id="CbTRWkR76J8zcbdZSMRa-18" value="&lt;font&gt;AWS Cloud Services&lt;/font&gt;" style="rounded=0;whiteSpace=wrap;html=1;labelPosition=center;verticalLabelPosition=top;align=left;verticalAlign=bottom;fillColor=#eeeeee;strokeColor=#36393d;fontSize=16;fontColor=#000000;" parent="1" vertex="1">
          <mxGeometry x="440" y="310" width="780" height="570" as="geometry" />
        </mxCell>
        <mxCell id="-pO5D620ASrmPBSO5rts-25" value="&lt;font style=&quot;font-size: 14px;&quot;&gt;Establish New User Account&lt;/font&gt;&lt;div&gt;&lt;font style=&quot;font-size: 14px;&quot;&gt;in Database&lt;/font&gt;&lt;/div&gt;" style="ellipse;whiteSpace=wrap;html=1;fillColor=#ffcc99;strokeColor=#36393d;fontColor=#7EA6E0;" parent="1" vertex="1">
          <mxGeometry x="550" y="350" width="200" height="80" as="geometry" />
        </mxCell>
        <mxCell id="-pO5D620ASrmPBSO5rts-39" style="rounded=0;orthogonalLoop=1;jettySize=auto;html=1;strokeColor=#000000;endArrow=none;startFill=0;shadow=0;jumpStyle=none;entryX=0.317;entryY=0.958;entryDx=0;entryDy=0;entryPerimeter=0;" parent="1" source="sfKcnbmMzuwdX9yF3wZo-21" target="-pO5D620ASrmPBSO5rts-25" edge="1">
          <mxGeometry relative="1" as="geometry">
            <mxPoint x="330" y="440" as="sourcePoint" />
            <mxPoint x="480" y="390" as="targetPoint" />
          </mxGeometry>
        </mxCell>
        <mxCell id="quLks_jJKd6fu7Yliykg-17" value="&lt;font style=&quot;font-size: 14px;&quot;&gt;Store User Profile&lt;/font&gt;" style="ellipse;whiteSpace=wrap;html=1;fillColor=#ffcc99;strokeColor=#36393d;fontColor=#7EA6E0;" parent="1" vertex="1">
          <mxGeometry x="960" y="360" width="200" height="80" as="geometry" />
        </mxCell>
        <mxCell id="mPkKGk8Zlr7uKQCcEDv3-32" value="&amp;lt;&amp;lt;extend&amp;gt;&amp;gt;" style="endArrow=classic;html=1;rounded=0;fillColor=#f5f5f5;gradientColor=#b3b3b3;strokeColor=#666666;dashed=1;fontColor=#060606;align=center;labelBackgroundColor=none;entryX=0.997;entryY=0.582;entryDx=0;entryDy=0;exitX=0.124;exitY=0.819;exitDx=0;exitDy=0;exitPerimeter=0;entryPerimeter=0;" parent="1" source="mPkKGk8Zlr7uKQCcEDv3-30" edge="1">
          <mxGeometry width="50" height="50" relative="1" as="geometry">
            <mxPoint x="960" y="800" as="sourcePoint" />
            <mxPoint x="739.4000000000001" y="856.5600000000002" as="targetPoint" />
          </mxGeometry>
        </mxCell>
        <mxCell id="rMrCo7qkllFQNwr9Kiji-18" value="&amp;lt;&amp;lt;include&amp;gt;&amp;gt;" style="endArrow=classic;html=1;rounded=0;fillColor=#f5f5f5;gradientColor=#b3b3b3;strokeColor=#666666;dashed=1;fontColor=#060606;align=center;labelBackgroundColor=none;entryX=0;entryY=0.5;entryDx=0;entryDy=0;exitX=1;exitY=0.5;exitDx=0;exitDy=0;" edge="1" parent="1" source="-pO5D620ASrmPBSO5rts-25" target="quLks_jJKd6fu7Yliykg-17">
          <mxGeometry width="50" height="50" relative="1" as="geometry">
            <mxPoint x="780" y="390" as="sourcePoint" />
            <mxPoint x="997" y="392" as="targetPoint" />
          </mxGeometry>
        </mxCell>
        <mxCell id="rMrCo7qkllFQNwr9Kiji-19" value="&lt;font style=&quot;font-size: 14px;&quot;&gt;Authenticate&lt;/font&gt;" style="ellipse;whiteSpace=wrap;html=1;fillColor=#ffcc99;strokeColor=#36393d;fontColor=#7EA6E0;" vertex="1" parent="1">
          <mxGeometry x="960" y="500" width="200" height="80" as="geometry" />
        </mxCell>
        <mxCell id="rMrCo7qkllFQNwr9Kiji-20" value="&amp;lt;&amp;lt;include&amp;gt;&amp;gt;" style="endArrow=classic;html=1;rounded=0;fillColor=#f5f5f5;gradientColor=#b3b3b3;strokeColor=#666666;dashed=1;fontColor=#060606;align=center;labelBackgroundColor=none;entryX=0.092;entryY=0.216;entryDx=0;entryDy=0;exitX=0.832;exitY=0.841;exitDx=0;exitDy=0;exitPerimeter=0;entryPerimeter=0;" edge="1" parent="1" target="rMrCo7qkllFQNwr9Kiji-19" source="-pO5D620ASrmPBSO5rts-25">
          <mxGeometry width="50" height="50" relative="1" as="geometry">
            <mxPoint x="750" y="480" as="sourcePoint" />
            <mxPoint x="997" y="482" as="targetPoint" />
          </mxGeometry>
        </mxCell>
        <mxCell id="rMrCo7qkllFQNwr9Kiji-21" value="&lt;span style=&quot;font-size: 14px;&quot;&gt;Verify User&#39;s Login&amp;nbsp;&lt;/span&gt;&lt;div&gt;&lt;span style=&quot;font-size: 14px; background-color: transparent;&quot;&gt;Credentials&lt;/span&gt;&lt;/div&gt;" style="ellipse;whiteSpace=wrap;html=1;fillColor=#ffcc99;strokeColor=#36393d;fontColor=#7EA6E0;" vertex="1" parent="1">
          <mxGeometry x="560" y="480" width="200" height="80" as="geometry" />
        </mxCell>
        <mxCell id="rMrCo7qkllFQNwr9Kiji-22" style="rounded=0;orthogonalLoop=1;jettySize=auto;html=1;strokeColor=#000000;endArrow=none;startFill=0;shadow=0;jumpStyle=none;entryX=0;entryY=0.5;entryDx=0;entryDy=0;" edge="1" parent="1" target="rMrCo7qkllFQNwr9Kiji-21" source="sfKcnbmMzuwdX9yF3wZo-21">
          <mxGeometry relative="1" as="geometry">
            <mxPoint x="330" y="794" as="sourcePoint" />
            <mxPoint x="510" y="640" as="targetPoint" />
          </mxGeometry>
        </mxCell>
        <mxCell id="rMrCo7qkllFQNwr9Kiji-23" value="&lt;span style=&quot;font-size: 14px;&quot;&gt;Record User&#39;s Riding Metrics&lt;/span&gt;" style="ellipse;whiteSpace=wrap;html=1;fillColor=#ffcc99;strokeColor=#36393d;fontColor=#7EA6E0;" vertex="1" parent="1">
          <mxGeometry x="540" y="750" width="200" height="80" as="geometry" />
        </mxCell>
        <mxCell id="rMrCo7qkllFQNwr9Kiji-24" style="rounded=0;orthogonalLoop=1;jettySize=auto;html=1;strokeColor=#000000;endArrow=none;startFill=0;shadow=0;jumpStyle=none;entryX=0.035;entryY=0.345;entryDx=0;entryDy=0;entryPerimeter=0;" edge="1" parent="1" target="rMrCo7qkllFQNwr9Kiji-23" source="sfKcnbmMzuwdX9yF3wZo-21">
          <mxGeometry relative="1" as="geometry">
            <mxPoint x="300" y="712" as="sourcePoint" />
            <mxPoint x="510" y="800" as="targetPoint" />
          </mxGeometry>
        </mxCell>
        <mxCell id="rMrCo7qkllFQNwr9Kiji-25" value="&lt;font style=&quot;font-size: 14px;&quot;&gt;Share User&#39;s Riding Location&lt;/font&gt;" style="ellipse;whiteSpace=wrap;html=1;fillColor=#ffcc99;strokeColor=#36393d;fontColor=#7EA6E0;" vertex="1" parent="1">
          <mxGeometry x="960" y="670" width="200" height="80" as="geometry" />
        </mxCell>
        <mxCell id="rMrCo7qkllFQNwr9Kiji-26" value="&amp;lt;&amp;lt;extend&amp;gt;&amp;gt;" style="endArrow=classic;html=1;rounded=0;fillColor=#f5f5f5;gradientColor=#b3b3b3;strokeColor=#666666;dashed=1;fontColor=#060606;align=center;labelBackgroundColor=none;entryX=0.991;entryY=0.405;entryDx=0;entryDy=0;entryPerimeter=0;exitX=0.023;exitY=0.655;exitDx=0;exitDy=0;exitPerimeter=0;" edge="1" parent="1" source="rMrCo7qkllFQNwr9Kiji-25" target="rMrCo7qkllFQNwr9Kiji-23">
          <mxGeometry width="50" height="50" relative="1" as="geometry">
            <mxPoint x="1050" y="730" as="sourcePoint" />
            <mxPoint x="800" y="730" as="targetPoint" />
          </mxGeometry>
        </mxCell>
        <mxCell id="rMrCo7qkllFQNwr9Kiji-27" value="&lt;span style=&quot;font-size: 14px;&quot;&gt;Update User&#39;s Profile&lt;/span&gt;" style="ellipse;whiteSpace=wrap;html=1;fillColor=#ffcc99;strokeColor=#36393d;fontColor=#7EA6E0;" vertex="1" parent="1">
          <mxGeometry x="550" y="610" width="200" height="80" as="geometry" />
        </mxCell>
        <mxCell id="rMrCo7qkllFQNwr9Kiji-28" style="rounded=0;orthogonalLoop=1;jettySize=auto;html=1;strokeColor=#000000;endArrow=none;startFill=0;shadow=0;jumpStyle=none;entryX=0;entryY=0.5;entryDx=0;entryDy=0;" edge="1" parent="1" target="rMrCo7qkllFQNwr9Kiji-27" source="sfKcnbmMzuwdX9yF3wZo-21">
          <mxGeometry relative="1" as="geometry">
            <mxPoint x="320" y="560" as="sourcePoint" />
            <mxPoint x="510" y="740" as="targetPoint" />
          </mxGeometry>
        </mxCell>
        <mxCell id="rMrCo7qkllFQNwr9Kiji-29" value="&amp;lt;&amp;lt;include&amp;gt;&amp;gt;" style="endArrow=classic;html=1;rounded=0;fillColor=#f5f5f5;gradientColor=#b3b3b3;strokeColor=#666666;dashed=1;fontColor=#060606;align=center;labelBackgroundColor=none;exitX=1;exitY=0.5;exitDx=0;exitDy=0;" edge="1" parent="1" source="rMrCo7qkllFQNwr9Kiji-21" target="rMrCo7qkllFQNwr9Kiji-19">
          <mxGeometry width="50" height="50" relative="1" as="geometry">
            <mxPoint x="780" y="520" as="sourcePoint" />
            <mxPoint x="1042" y="620" as="targetPoint" />
          </mxGeometry>
        </mxCell>
      </root>
    </mxGraphModel>
  </diagram>
</mxfile>
